<svg width="88" height="89" viewBox="0 0 88 89" fill="none" xmlns="http://www.w3.org/2000/svg">
<path d="M49.3125 71.224C50.1563 71.7708 50.9375 72.3958 51.6615 73.0885C52.2917 73.8333 53.0469 74.4167 53.9271 74.8385C54.8021 75.2604 55.7344 75.4896 56.7083 75.526C57.1771 75.4844 57.6406 75.401 58.099 75.276C58.5521 75.151 58.9948 74.9844 59.4167 74.7813C59.8438 74.5729 60.2448 74.3281 60.625 74.0469C61.0052 73.7656 61.3542 73.4531 61.6719 73.1042C61.9948 72.7604 62.276 72.3854 62.5313 71.9896C62.7813 71.5885 62.9896 71.1719 63.1615 70.7292C63.3333 70.2917 63.4635 69.8438 63.5521 69.3802C63.6406 68.9167 63.6823 68.4531 63.6823 67.9792C63.6823 67.5104 63.6406 67.0469 63.5521 66.5833C63.4635 66.1198 63.3333 65.6719 63.1615 65.2292C62.9896 64.7917 62.7813 64.375 62.5313 63.974C62.276 63.5781 61.9948 63.2031 61.6719 62.8594C61.3542 62.5104 61.0052 62.1979 60.625 61.9167C60.2448 61.6354 59.8438 61.3906 59.4167 61.1823C58.9948 60.9792 58.5521 60.8125 58.099 60.6875C57.6406 60.5625 57.1771 60.4792 56.7083 60.4375C55.7292 60.4583 54.7969 60.6771 53.9167 61.099C53.0313 61.526 52.2813 62.1146 51.6563 62.8646C50.9375 63.5677 50.1563 64.1927 49.3125 64.7396C47.7865 65.6823 44.8438 65.1875 43.651 64.9323L42.4531 64.6771V46.7604H27.0625C26.901 47.526 26.9062 48.2917 27.0781 49.0573C27.526 49.7292 28.0313 50.3542 28.599 50.9323C29.6146 51.8333 30.401 52.901 30.9688 54.1354C31.5313 55.3646 31.8229 56.6615 31.8438 58.0156C31.8177 58.6875 31.7344 59.3542 31.5781 60.0104C31.4271 60.6667 31.2135 61.3021 30.9375 61.9167C30.6563 62.526 30.3229 63.1094 29.9271 63.6563C29.5365 64.2083 29.0938 64.7135 28.599 65.1771C28.1094 65.6354 27.5781 66.0469 27 66.4063C26.4271 66.7656 25.8281 67.0625 25.1927 67.3021C24.5625 67.5417 23.9115 67.7188 23.2448 67.8333C22.5781 67.9479 21.9063 67.9948 21.2292 67.974C20.5521 67.9948 19.8802 67.9479 19.2135 67.8333C18.5469 67.724 17.8958 67.5469 17.2604 67.3073C16.6302 67.0677 16.026 66.7656 15.4531 66.4115C14.8802 66.0521 14.349 65.6406 13.8542 65.1823C13.3594 64.7188 12.9219 64.2135 12.526 63.6667C12.1354 63.1146 11.7969 62.5365 11.5208 61.9219C11.2448 61.3073 11.026 60.6719 10.875 60.0156C10.724 59.3594 10.6354 58.6979 10.6146 58.0208C10.6406 56.6771 10.9375 55.3906 11.5 54.1667C12.0625 52.9375 12.849 51.875 13.8542 50.974C14.4219 50.375 14.9375 49.7292 15.3854 49.0417C15.5469 48.2813 15.5521 47.5208 15.3958 46.7604H0V83.4427C0 83.8073 0.036459 84.1719 0.109375 84.5313C0.182291 84.8906 0.291668 85.2396 0.432292 85.5781C0.578126 85.9167 0.75 86.2344 0.953125 86.5417C1.16146 86.8438 1.39583 87.125 1.65625 87.3802C1.91667 87.6406 2.20313 87.8698 2.51042 88.0729C2.81771 88.276 3.14062 88.4427 3.47917 88.5833C3.82292 88.724 4.17188 88.8281 4.53125 88.8958C4.89583 88.9688 5.26042 89 5.625 89H42.4531V71.2865L43.651 71.0365C44.8438 70.776 47.7865 70.2865 49.3125 71.224Z" fill="#47178F"/>
<path d="M69.7812 45.625C69.526 44.4375 69.0312 41.5365 69.9739 40.0156C70.5208 39.1823 71.1458 38.4062 71.8489 37.6927C72.5937 37.0677 73.1823 36.3177 73.6042 35.4427C74.0312 34.5677 74.2604 33.651 74.2969 32.6771C74.2552 32.2083 74.1719 31.75 74.0469 31.2969C73.9219 30.8437 73.7552 30.401 73.5469 29.9792C73.3385 29.5573 73.0937 29.1562 72.8125 28.7812C72.526 28.4062 72.2135 28.0573 71.8646 27.7396C71.5156 27.4219 71.1406 27.1354 70.7396 26.8854C70.3385 26.6406 69.9167 26.4271 69.4792 26.2604C69.0364 26.0885 68.5833 25.9583 68.1198 25.8698C67.6562 25.7865 67.1875 25.7396 66.7135 25.7396C66.2396 25.7396 65.7708 25.7865 65.3073 25.8698C64.8437 25.9583 64.3906 26.0885 63.9479 26.2604C63.5052 26.4323 63.0885 26.6406 62.6875 26.8906C62.2864 27.1406 61.9114 27.4219 61.5625 27.7396C61.2135 28.0625 60.901 28.4062 60.6146 28.7865C60.3333 29.1615 60.0885 29.5625 59.8802 29.9844C59.6719 30.4062 59.5052 30.8437 59.3802 31.2969C59.2552 31.7552 59.1719 32.2135 59.1354 32.6823C59.151 33.6562 59.375 34.5833 59.7969 35.4635C60.2239 36.3385 60.8177 37.0885 61.5729 37.7083C62.276 38.4219 62.9062 39.1979 63.4583 40.0417C64.401 41.5573 63.9062 44.4375 63.6458 45.625L63.3906 46.7604H45.4844V62.1771C47 62.3021 47.4375 62.3073 47.7396 62.1667C48.4062 61.7135 49.026 61.2083 49.5989 60.651C50.5052 59.6406 51.5781 58.8542 52.8125 58.2917C54.0521 57.7292 55.3489 57.4427 56.7083 57.4219C57.3802 57.4635 58.0417 57.5625 58.6927 57.7292C59.3437 57.8906 59.9739 58.1146 60.5781 58.3958C61.1875 58.6823 61.7656 59.0156 62.3125 59.4062C62.8542 59.8021 63.3594 60.2396 63.8177 60.724C64.2812 61.2135 64.6875 61.7344 65.0521 62.3021C65.4114 62.8646 65.7135 63.4583 65.9635 64.0781C66.2135 64.6979 66.401 65.3385 66.526 65.9948C66.651 66.651 66.7135 67.3125 66.7135 67.9792C66.7135 68.651 66.651 69.3125 66.526 69.9687C66.401 70.625 66.2135 71.2656 65.9635 71.8854C65.7135 72.5052 65.4114 73.099 65.0521 73.6615C64.6875 74.224 64.2812 74.75 63.8177 75.2396C63.3594 75.724 62.8542 76.1615 62.3125 76.5521C61.7656 76.9479 61.1875 77.2812 60.5781 77.5677C59.9739 77.849 59.3437 78.0729 58.6927 78.2344C58.0417 78.401 57.3802 78.5 56.7083 78.5417C55.3542 78.5156 54.0625 78.2187 52.8281 77.6615C51.5937 77.099 50.526 76.3177 49.6198 75.3177C49.0312 74.75 48.401 74.2448 47.7239 73.7917C47.4375 73.6562 47 73.6667 45.4844 73.7865V89H82.2552C82.625 89.0052 82.9896 88.974 83.3489 88.9062C83.7135 88.8437 84.0625 88.7396 84.4062 88.6042C84.75 88.4687 85.0729 88.3021 85.3802 88.1042C85.6927 87.9062 85.9792 87.6771 86.2396 87.4219C86.5052 87.1667 86.7396 86.8906 86.9531 86.5885C87.1614 86.2865 87.3385 85.9687 87.4844 85.6302C87.6302 85.2969 87.7396 84.9479 87.8177 84.5885C87.8958 84.2344 87.9323 83.8698 87.9375 83.5052L87.9427 83.4427V46.7604H70.0364L69.7812 45.625Z" fill="#47178F"/>
<path d="M18.1615 44.9896C18.4167 46.1771 18.9115 49.125 17.9688 50.6458C17.4167 51.4896 16.7917 52.2708 16.0938 52.9948C15.349 53.625 14.7604 54.375 14.3333 55.25C13.9115 56.125 13.6823 57.0469 13.6458 58.0208C13.6667 58.4948 13.7344 58.9635 13.849 59.4271C13.9635 59.8854 14.1198 60.3333 14.3229 60.7656C14.5208 61.1979 14.7656 61.6042 15.0469 61.9896C15.3281 62.3698 15.6458 62.724 16 63.0469C16.349 63.3698 16.7292 63.6563 17.1354 63.901C17.5469 64.151 17.974 64.3542 18.4219 64.5208C18.8698 64.6823 19.3333 64.8021 19.8021 64.8802C20.276 64.9531 20.75 64.9792 21.2292 64.9635C21.7031 64.9792 22.1823 64.9531 22.651 64.8802C23.125 64.8021 23.5833 64.6875 24.0313 64.5208C24.4792 64.3594 24.9115 64.151 25.3177 63.901C25.724 63.6563 26.1042 63.3698 26.4583 63.0469C26.8073 62.7292 27.125 62.375 27.4063 61.9896C27.6875 61.6094 27.9323 61.1979 28.1354 60.7708C28.3333 60.3385 28.4948 59.8906 28.6042 59.4323C28.7188 58.9688 28.7865 58.5 28.8073 58.026C28.7917 57.0521 28.5677 56.125 28.1458 55.25C27.7188 54.3698 27.125 53.625 26.3698 53.0052C25.6667 52.2865 25.0365 51.5104 24.4844 50.6719C23.5417 49.151 24.0365 46.1771 24.2917 44.9896L24.5521 43.7448H42.4531V27.0208C40.9375 26.901 40.5 26.8958 40.1979 27.0365C39.5313 27.4844 38.9167 27.9896 38.3438 28.5521C37.4375 29.5625 36.3646 30.349 35.1302 30.9115C33.8906 31.4688 32.5938 31.7604 31.2344 31.776C30.5573 31.7552 29.8906 31.6719 29.2292 31.5208C28.5729 31.3646 27.9323 31.151 27.3125 30.875C26.6979 30.599 26.1146 30.2656 25.5625 29.875C25.0104 29.4844 24.5052 29.0469 24.0365 28.5521C23.5729 28.0625 23.1615 27.5365 22.8021 26.9635C22.4427 26.3958 22.1406 25.7917 21.901 25.1667C21.6615 24.5365 21.4844 23.8906 21.3698 23.224C21.2552 22.5625 21.2083 21.8906 21.2292 21.2188C21.2083 20.5469 21.2552 19.875 21.3698 19.2135C21.4844 18.5521 21.6615 17.901 21.901 17.276C22.1406 16.6458 22.4427 16.0469 22.8021 15.474C23.1615 14.9063 23.5729 14.375 24.0417 13.8854C24.5052 13.3958 25.0104 12.9531 25.5625 12.5625C26.1146 12.1719 26.6979 11.8385 27.3177 11.5625C27.9323 11.2865 28.5729 11.0729 29.2292 10.9167C29.8906 10.7656 30.5573 10.6823 31.2344 10.6615C32.5885 10.6875 33.8802 10.9792 35.1146 11.5417C36.3438 12.1042 37.4167 12.8802 38.3229 13.8802C38.9063 14.4479 39.5365 14.9583 40.2188 15.4115C40.5052 15.5469 40.9375 15.5365 42.4531 15.4167V0H5.6875C5.3125 0.00520933 4.9375 0.046876 4.57292 0.125C4.20313 0.203125 3.84896 0.317707 3.5 0.463542C3.15625 0.614583 2.82813 0.791667 2.51563 1C2.20833 1.21354 1.92188 1.45312 1.65625 1.71875C1.39062 1.98437 1.15625 2.27604 0.953125 2.58854C0.744792 2.90104 0.567709 3.22917 0.427083 3.57813C0.286459 3.92188 0.177083 4.27604 0.104167 4.64583C0.0364587 5.01042 0 5.38542 0 5.75521V43.7448H17.9063L18.1615 44.9896Z" fill="#47178F"/>
<path d="M82.2552 0H45.4844V17.9115L44.2917 18.1719C43.0938 18.4219 40.1563 18.9167 38.625 17.9792C37.7865 17.4323 37 16.8073 36.2813 16.1146C35.6511 15.3698 34.8958 14.7865 34.0156 14.3646C33.1354 13.9375 32.2083 13.7083 31.2344 13.6771C30.7552 13.6979 30.2865 13.7656 29.8229 13.8802C29.3594 13.9896 28.9115 14.1458 28.474 14.349C28.0417 14.5521 27.6354 14.7917 27.25 15.0729C26.8594 15.3542 26.5052 15.6667 26.1823 16.0156C25.8594 16.3646 25.5729 16.7448 25.3229 17.151C25.0781 17.5573 24.8698 17.9844 24.7031 18.4271C24.5365 18.875 24.4167 19.3333 24.3438 19.8021C24.2708 20.2708 24.2396 20.7448 24.2604 21.2188C24.2396 21.6927 24.2708 22.1667 24.3438 22.6354C24.4167 23.1042 24.5365 23.5625 24.7031 24.0104C24.8698 24.4583 25.0729 24.8802 25.3229 25.2865C25.5729 25.6927 25.8594 26.0729 26.1823 26.4219C26.5052 26.7708 26.8594 27.0885 27.2448 27.3698C27.6302 27.6458 28.0417 27.8906 28.474 28.0885C28.9063 28.2917 29.3594 28.4479 29.8229 28.5625C30.2865 28.6719 30.7552 28.7396 31.2344 28.7604C32.2136 28.7448 33.1458 28.5208 34.0261 28.099C34.9063 27.6771 35.6615 27.0885 36.2865 26.3385C37.0052 25.6354 37.7865 25.0104 38.625 24.4583C40.1563 23.526 43.0938 24.0156 44.2917 24.2708L45.4844 24.526V43.7448H60.8802C61.0052 42.2396 61.0104 41.8542 60.8646 41.5573C60.4167 40.901 59.9115 40.2917 59.3438 39.7292C58.3281 38.8333 57.5365 37.7708 56.974 36.5417C56.4115 35.3125 56.1198 34.0208 56.099 32.6719C56.1406 32.0052 56.2448 31.3438 56.4063 30.6979C56.5729 30.0521 56.7969 29.4219 57.0833 28.8177C57.3698 28.2135 57.7083 27.6406 58.099 27.099C58.4948 26.5573 58.9375 26.0573 59.4271 25.599C59.9115 25.1406 60.4427 24.7344 61.0104 24.375C61.5729 24.0156 62.1719 23.7135 62.7969 23.4688C63.4219 23.2188 64.0625 23.0365 64.724 22.9115C65.3802 22.7813 66.0469 22.7188 66.7188 22.724C67.3906 22.724 68.0573 22.7865 68.7188 22.9115C69.375 23.0365 70.0156 23.224 70.6406 23.4688C71.2656 23.7188 71.8646 24.0208 72.4271 24.3802C72.9948 24.7396 73.5208 25.1458 74.0104 25.6042C74.5 26.0625 74.9427 26.5625 75.3333 27.1094C75.7292 27.651 76.0677 28.224 76.349 28.8281C76.6354 29.4323 76.8594 30.0625 77.0208 30.7083C77.1875 31.3542 77.2865 32.0156 77.3281 32.6823C77.3021 34.0313 77.0052 35.3177 76.4427 36.5417C75.8802 37.7656 75.0938 38.8333 74.0886 39.7344C73.5208 40.3021 73.0104 40.9115 72.5521 41.5729C72.4167 41.8594 72.4219 42.2396 72.5469 43.7448H87.9427V5.75521C87.9427 5.38542 87.9063 5.01042 87.8333 4.64583C87.7604 4.28125 87.6563 3.92188 87.5104 3.57813C87.3698 3.22917 87.1979 2.90104 86.9896 2.58854C86.7813 2.27604 86.5469 1.98437 86.2865 1.71875C86.0208 1.45312 85.7344 1.21354 85.4219 1.00521C85.1146 0.791666 84.7865 0.614583 84.4427 0.463542C84.0938 0.317707 83.7396 0.203125 83.3698 0.125C83.0052 0.046876 82.6302 0.00520933 82.2552 0Z" fill="#47178F"/>
</svg>
