<svg width="367" height="90" viewBox="0 0 367 90" fill="none" xmlns="http://www.w3.org/2000/svg">
<path d="M19.0365 56.7071V49.7904H7.72395V57.8737L10.0365 57.9987V61.3946H0.348953V58.1446L1.68229 58.0404C2.4427 57.9571 2.82812 57.5821 2.82812 56.9154V38.3112L0.557287 38.1862V34.7904H10.2448V38.0404L8.91145 38.1446C8.49479 38.2018 8.18749 38.3216 7.99479 38.4987C7.81249 38.6654 7.72395 38.9935 7.72395 39.4779V45.6654H19.0365V38.3112L16.7656 38.1862V34.7904H26.4323V38.0404L25.1198 38.1446C24.3385 38.2279 23.9531 38.6602 23.9531 39.4362V57.8737L26.2448 57.9987V61.3946H16.5573V58.1446L17.8698 58.0404C18.2708 57.9883 18.5625 57.8737 18.7448 57.7071C18.9375 57.53 19.0365 57.1966 19.0365 56.7071Z" fill="#47178F"/>
<path d="M29.9123 61.3946V58.3112L37.8706 48.2696C38.7039 47.2018 39.2508 46.4935 39.5164 46.1446C39.7768 45.7852 40.0373 45.28 40.2873 44.6237C40.5477 43.9727 40.6831 43.1862 40.6831 42.2696C40.6831 41.3425 40.3706 40.5821 39.7456 39.9987C39.1206 39.4154 38.3133 39.1237 37.3289 39.1237C36.355 39.1237 35.6206 39.2071 35.1206 39.3737C34.631 39.53 34.3393 39.7018 34.2456 39.8946C34.1623 40.0925 34.1206 40.405 34.1206 40.8321V43.6654L30.0373 43.3946V36.9987C32.5477 35.7487 35.1258 35.1237 37.7664 35.1237C40.4018 35.1237 42.3914 35.7696 43.7248 37.0612C45.0581 38.3529 45.7248 40.1185 45.7248 42.3529C45.7248 44.5925 44.5841 47.0821 42.3081 49.8321L35.8706 57.4362H45.8706V61.3946H29.9123Z" fill="#47178F"/>
<path d="M56.8072 56.9154V38.7487H53.6822C53.0677 38.7487 52.7656 39.1654 52.7656 39.9987V41.8737L48.6822 41.6029V34.7904H69.5989V41.6029L65.5156 41.8737V39.9987C65.5156 39.5404 65.4427 39.2227 65.3072 39.0404C65.1822 38.8477 64.8593 38.7487 64.3489 38.7487H61.6406V57.8737L64.8072 57.9987V61.3946H53.5156V58.1446L55.6406 58.0404C56.4166 57.9571 56.8072 57.5821 56.8072 56.9154Z" fill="#47178F"/>
<path d="M103.115 48.1446C103.115 51.5925 102.386 54.4258 100.927 56.6446C99.4793 58.8529 97.3856 60.3216 94.6356 61.0404V61.1446C96.6876 61.2591 98.646 61.8737 100.511 62.9987C101.844 63.8164 103.406 64.2279 105.198 64.2279C105.599 64.2279 106.016 64.1966 106.448 64.1446L105.948 67.9987C105.583 68.0248 105.229 68.0404 104.886 68.0404L100.927 67.3529C99.2449 66.7696 97.5991 66.1029 95.9897 65.3529C94.1824 64.5039 92.5001 64.0821 90.9481 64.0821C90.2085 64.0821 89.4689 64.155 88.7189 64.3112L89.2814 61.4362C82.9324 60.6029 79.7606 56.1758 79.7606 48.1446C79.7606 45.7018 80.1199 43.556 80.8439 41.7071C81.5626 39.8477 82.521 38.4102 83.7189 37.3946C86.0626 35.3425 88.8126 34.3112 91.9689 34.3112C95.1356 34.3112 97.7814 35.4362 99.9064 37.6862C102.042 39.9258 103.115 43.4102 103.115 48.1446ZM84.7606 47.9571C84.7606 54.5716 87.0522 57.8737 91.6356 57.8737C94.0939 57.8737 95.8283 56.8633 96.8439 54.8321C97.7189 53.0404 98.1564 50.8529 98.1564 48.2696C98.1564 45.9518 97.7449 43.8216 96.9272 41.8737C96.4949 40.806 95.8126 39.9675 94.8856 39.3529C93.9689 38.7435 92.771 38.4362 91.3022 38.4362C89.8439 38.4362 88.5835 38.9154 87.5314 39.8737C86.4741 40.8321 85.7449 41.9935 85.3439 43.3529C84.9533 44.7175 84.7606 46.2487 84.7606 47.9571Z" fill="#47178F"/>
<path d="M127.279 58.2279V61.3946H120.8V58.7904C119.326 60.8737 117.164 61.9154 114.321 61.9154C110.18 61.9154 108.112 59.6133 108.112 54.9987V45.7487C108.112 45.03 107.779 44.6602 107.112 44.6446L105.841 44.5612V41.2696H112.883V53.9571C112.883 55.3737 113.076 56.4466 113.466 57.1654C113.867 57.8737 114.696 58.2279 115.946 58.2279C117.206 58.2279 118.216 57.8477 118.966 57.0821C119.727 56.306 120.112 55.3685 120.112 54.2696V45.8321C120.112 45.405 120.034 45.1029 119.883 44.9362C119.742 44.7591 119.487 44.6602 119.112 44.6446L117.841 44.5612V41.2696H124.883V56.9571C124.883 57.3894 124.946 57.681 125.071 57.8321C125.206 57.9727 125.477 58.0716 125.883 58.1237L127.279 58.2279Z" fill="#47178F"/>
<path d="M136.961 41.2696V58.0821L139.231 58.1862V61.3946H129.711V58.3529L131.044 58.2279C131.804 58.1602 132.19 57.7383 132.19 56.9571V45.8321C132.19 45.3737 132.112 45.0716 131.961 44.9154C131.82 44.7487 131.565 44.6654 131.19 44.6654L129.794 44.6029V41.2696H136.961ZM131.919 37.8321C131.362 37.28 131.086 36.5769 131.086 35.7279C131.086 34.8685 131.362 34.155 131.919 33.5821C132.471 32.9987 133.2 32.7071 134.106 32.7071C135.023 32.7071 135.763 32.9987 136.336 33.5821C136.903 34.155 137.19 34.8685 137.19 35.7279C137.19 36.5769 136.903 37.28 136.336 37.8321C135.763 38.3737 135.023 38.6446 134.106 38.6446C133.2 38.6446 132.471 38.3737 131.919 37.8321Z" fill="#47178F"/>
<path d="M158.155 61.3946H141.842V58.3529L152.113 44.8321H147.071C146.514 44.8321 146.16 44.9466 146.009 45.1654C145.868 45.3737 145.801 45.7175 145.801 46.1862V47.6029L142.03 47.3112V41.2696H157.967V43.9987L147.551 57.7904H153.238C154.014 57.7904 154.405 57.3425 154.405 56.4362V54.7487L158.155 55.0404V61.3946Z" fill="#47178F"/>
<path d="M182.12 52.0821V59.3112C179.631 61.0196 176.548 61.8737 172.87 61.8737C169.188 61.8737 166.313 60.7227 164.245 58.4154C162.188 56.1133 161.162 52.6862 161.162 48.1446C161.162 46.1446 161.417 44.3477 161.933 42.7487C162.459 41.155 163.141 39.8321 163.975 38.7904C164.818 37.7487 165.798 36.8841 166.912 36.1862C169.048 34.9362 171.475 34.3112 174.183 34.3112C176.891 34.3112 179.417 34.8633 181.766 35.9571V42.7487L177.683 43.0404V39.9154C177.683 39.5143 177.626 39.2227 177.516 39.0404C177.225 38.53 176.006 38.2696 173.87 38.2696C168.73 38.2696 166.162 41.4571 166.162 47.8321C166.162 54.556 168.48 57.9154 173.12 57.9154C174.954 57.9154 176.36 57.5977 177.35 56.9571V50.9987H177.308L174.245 50.8737V47.4779H184.204V50.6654L183.287 50.7487C182.855 50.806 182.548 50.9258 182.37 51.1029C182.204 51.2696 182.12 51.5977 182.12 52.0821Z" fill="#47178F"/>
<path d="M204.469 42.0821V56.9571C204.469 57.3893 204.542 57.6862 204.698 57.8529C204.849 58.0091 205.104 58.0977 205.469 58.1237L206.76 58.1862V61.3946H200.406V59.0821L200.281 59.0404C198.948 60.9571 197.12 61.9154 194.802 61.9154C192.078 61.9154 190.063 61.0508 188.76 59.3112C187.453 57.5768 186.802 55.2018 186.802 52.1862C186.802 48.5612 187.677 45.7383 189.427 43.7071C191.188 41.681 193.833 40.6654 197.365 40.6654C199.625 40.6654 201.995 41.1393 204.469 42.0821ZM199.844 55.0404V44.6654C199.094 44.3216 198.063 44.1446 196.76 44.1446C194.969 44.1446 193.667 44.8685 192.865 46.3112C192.073 47.7591 191.677 49.6654 191.677 52.0404C191.677 56.3633 193.063 58.5196 195.844 58.5196C197.01 58.5196 197.969 58.1654 198.719 57.4571C199.469 56.7487 199.844 55.9466 199.844 55.0404Z" fill="#47178F"/>
<path d="M208.961 44.5196V41.2696H215.711V43.8737C217.211 41.7383 219.258 40.6654 221.857 40.6654C224.451 40.6654 226.211 41.7383 227.128 43.8737C228.612 41.7383 230.633 40.6654 233.19 40.6654C235.118 40.6654 236.597 41.2487 237.628 42.4154C238.67 43.5716 239.19 45.3112 239.19 47.6446V58.0821L241.482 58.1862V61.3946H231.961V58.3529L233.274 58.2279C233.675 58.1758 233.961 58.0612 234.128 57.8946C234.305 57.7279 234.409 57.4154 234.44 56.9571V48.6654C234.44 47.2071 234.274 46.1237 233.94 45.4154C233.607 44.7071 232.821 44.3529 231.586 44.3529C230.362 44.3529 229.425 44.7279 228.774 45.4779C228.118 46.2279 227.795 47.2279 227.795 48.4779V58.0821L230.003 58.1862V61.3946H220.565V58.3529L221.878 58.2279C222.279 58.1758 222.571 58.0612 222.753 57.8946C222.946 57.7279 223.045 57.405 223.045 56.9154V48.6654C223.045 47.2071 222.878 46.1237 222.545 45.4154C222.211 44.7071 221.42 44.3529 220.17 44.3529C218.93 44.3529 217.993 44.7435 217.357 45.5196C216.716 46.2852 216.399 47.2435 216.399 48.3946V58.0821L218.565 58.1862V61.3946H209.128V58.3529L210.44 58.2279C210.841 58.1758 211.133 58.0612 211.315 57.8946C211.508 57.7279 211.607 57.405 211.607 56.9154H211.628V45.8737C211.628 45.4154 211.55 45.1029 211.399 44.9362C211.258 44.7591 211.003 44.6602 210.628 44.6446L208.961 44.5196Z" fill="#47178F"/>
<path d="M253.872 40.6654C255.872 40.6654 257.455 41.1602 258.622 42.1446C259.799 43.1185 260.393 44.4779 260.393 46.2279C260.393 47.4102 260.132 48.4466 259.622 49.3321C259.122 50.2227 258.497 50.9258 257.747 51.4362C257.007 51.9362 256.106 52.3477 255.039 52.6654C253.247 53.2071 251.231 53.4779 248.997 53.4779C249.08 54.8946 249.518 56.0352 250.31 56.8946C251.112 57.7591 252.341 58.1862 253.997 58.1862C255.648 58.1862 257.299 57.6029 258.955 56.4362L260.476 59.6654C259.945 60.155 259.044 60.655 257.768 61.1654C256.502 61.6654 255.06 61.9154 253.435 61.9154C250.185 61.9154 247.794 61.0196 246.268 59.2279C244.752 57.4258 243.997 54.9518 243.997 51.8112C243.997 48.6602 244.862 46.0143 246.601 43.8737C248.336 41.7383 250.757 40.6654 253.872 40.6654ZM252.06 49.8321C253.028 49.655 253.924 49.2643 254.747 48.6654C255.58 48.056 255.997 47.3425 255.997 46.5196C255.997 44.8946 255.195 44.0821 253.601 44.0821C252.101 44.0821 250.945 44.681 250.143 45.8737C249.351 47.056 248.914 48.4727 248.83 50.1237C250.007 50.0977 251.086 49.9987 252.06 49.8321Z" fill="#47178F"/>
<path d="M327.729 72.0156C328.573 72.5677 329.354 73.1875 330.078 73.8854C330.708 74.6302 331.464 75.2083 332.344 75.6354C333.219 76.0573 334.146 76.2865 335.125 76.3177C335.594 76.2813 336.057 76.1979 336.516 76.0729C336.969 75.9479 337.411 75.7813 337.833 75.5729C338.26 75.3698 338.661 75.125 339.042 74.8438C339.422 74.5625 339.771 74.25 340.089 73.901C340.411 73.5573 340.693 73.1823 340.943 72.7813C341.198 72.3854 341.406 71.9635 341.578 71.526C341.75 71.0885 341.88 70.6406 341.969 70.1771C342.052 69.7135 342.099 69.25 342.099 68.776C342.099 68.3073 342.052 67.8385 341.969 67.3802C341.88 66.9167 341.75 66.4635 341.578 66.026C341.406 65.5885 341.198 65.1719 340.943 64.7708C340.693 64.3698 340.411 64 340.089 63.651C339.771 63.3073 339.422 62.9948 339.042 62.7135C338.661 62.4323 338.26 62.1875 337.833 61.9792C337.411 61.7708 336.969 61.6042 336.516 61.4792C336.057 61.3542 335.594 61.276 335.125 61.2344C334.146 61.2552 333.214 61.474 332.333 61.8958C331.448 62.3229 330.698 62.9063 330.073 63.6615C329.354 64.3646 328.573 64.9896 327.729 65.5365C326.203 66.474 323.26 65.9844 322.068 65.7292L320.87 65.474V47.5573H305.479C305.318 48.3229 305.323 49.0885 305.495 49.849C305.943 50.5208 306.448 51.1458 307.016 51.724C308.031 52.6302 308.818 53.6979 309.385 54.9271C309.948 56.1615 310.24 57.4531 310.255 58.8125C310.234 59.4844 310.151 60.1458 309.995 60.8021C309.844 61.4583 309.63 62.0938 309.349 62.7083C309.073 63.3229 308.74 63.9063 308.344 64.4531C307.953 65.0052 307.51 65.5104 307.016 65.9688C306.526 66.4323 305.995 66.8438 305.417 67.2031C304.844 67.5573 304.245 67.8594 303.609 68.099C302.979 68.3385 302.328 68.5156 301.661 68.6302C300.995 68.7396 300.323 68.7917 299.646 68.7708C298.969 68.7917 298.297 68.7448 297.63 68.6302C296.958 68.5156 296.312 68.3438 295.677 68.099C295.047 67.8594 294.443 67.5625 293.87 67.2031C293.297 66.849 292.766 66.4375 292.271 65.974C291.776 65.5156 291.333 65.0104 290.943 64.4583C290.552 63.9115 290.214 63.3333 289.937 62.7188C289.656 62.1042 289.443 61.4688 289.292 60.8125C289.141 60.1563 289.052 59.4896 289.031 58.8177C289.057 57.474 289.354 56.1875 289.917 54.9583C290.479 53.7344 291.266 52.6719 292.271 51.7708C292.839 51.1719 293.349 50.526 293.802 49.8333C293.964 49.0781 293.964 48.3177 293.807 47.5573H278.417V84.2396C278.417 84.6042 278.453 84.9688 278.526 85.3281C278.599 85.6875 278.708 86.0365 278.849 86.3698C278.995 86.7083 279.167 87.0313 279.37 87.3333C279.578 87.6406 279.812 87.9219 280.073 88.1771C280.333 88.4375 280.62 88.6667 280.927 88.8698C281.234 89.0677 281.557 89.2396 281.896 89.3802C282.24 89.5208 282.589 89.625 282.948 89.6927C283.312 89.7656 283.677 89.7969 284.042 89.7969H320.87V72.0833L322.068 71.8281C323.26 71.5729 326.203 71.0833 327.729 72.0156Z" fill="#47178F"/>
<path d="M348.198 46.4167C347.943 45.2292 347.448 42.3281 348.391 40.8125C348.937 39.974 349.562 39.2031 350.266 38.4844C351.01 37.8594 351.599 37.1146 352.021 36.2396C352.448 35.3646 352.677 34.4427 352.714 33.474C352.672 33.0052 352.589 32.5417 352.464 32.0886C352.339 31.6354 352.172 31.1979 351.964 30.7761C351.755 30.3542 351.51 29.9531 351.224 29.5781C350.943 29.1979 350.63 28.8542 350.281 28.5365C349.932 28.2136 349.557 27.9323 349.156 27.6823C348.755 27.4323 348.333 27.224 347.891 27.0521C347.453 26.8854 347 26.7552 346.536 26.6667C346.073 26.5781 345.604 26.5365 345.13 26.5365C344.656 26.5365 344.187 26.5833 343.724 26.6667C343.255 26.7552 342.807 26.8854 342.365 27.0573C341.922 27.224 341.505 27.4375 341.104 27.6875C340.703 27.9323 340.328 28.2188 339.979 28.5365C339.63 28.8542 339.318 29.2031 339.031 29.5833C338.75 29.9583 338.505 30.3594 338.297 30.7813C338.089 31.2031 337.922 31.6406 337.797 32.0938C337.672 32.5469 337.589 33.0104 337.552 33.4792C337.568 34.4531 337.792 35.3802 338.214 36.2552C338.641 37.1354 339.229 37.8854 339.984 38.5052C340.693 39.2188 341.323 39.9948 341.875 40.8333C342.812 42.3542 342.323 45.2292 342.062 46.4167L341.807 47.5573H323.901V62.974C325.417 63.099 325.854 63.1042 326.156 62.9583C326.823 62.5104 327.443 62.0052 328.016 61.4427C328.922 60.4323 329.995 59.6511 331.229 59.0886C332.469 58.5261 333.766 58.2344 335.125 58.2188C335.797 58.2552 336.458 58.3594 337.109 58.5208C337.76 58.6875 338.391 58.9115 338.995 59.1927C339.604 59.474 340.182 59.8125 340.729 60.2031C341.271 60.5938 341.776 61.0365 342.234 61.5208C342.698 62.0052 343.104 62.5313 343.469 63.0938C343.828 63.6615 344.13 64.25 344.38 64.875C344.63 65.4948 344.818 66.1354 344.943 66.7917C345.068 67.4479 345.13 68.1094 345.13 68.7761C345.13 69.4479 345.068 70.1094 344.943 70.7656C344.818 71.4219 344.63 72.0573 344.38 72.6823C344.13 73.3021 343.828 73.8958 343.469 74.4583C343.104 75.0208 342.698 75.5469 342.234 76.0313C341.776 76.5208 341.271 76.9583 340.729 77.349C340.182 77.7396 339.604 78.0781 338.995 78.3594C338.391 78.6458 337.76 78.8698 337.109 79.0313C336.458 79.1979 335.797 79.2969 335.125 79.3386C333.771 79.3073 332.474 79.0156 331.245 78.4531C330.01 77.8958 328.943 77.1146 328.036 76.1146C327.448 75.5469 326.818 75.0365 326.141 74.5886C325.854 74.4531 325.417 74.4583 323.901 74.5833V89.7969H360.672C361.042 89.8021 361.406 89.7708 361.766 89.7031C362.13 89.6354 362.479 89.5365 362.823 89.4011C363.167 89.2656 363.49 89.099 363.797 88.9011C364.109 88.7031 364.396 88.474 364.656 88.2188C364.922 87.9636 365.156 87.6875 365.365 87.3854C365.578 87.0833 365.755 86.7656 365.901 86.4271C366.047 86.0886 366.156 85.7448 366.234 85.3854C366.307 85.0261 366.349 84.6667 366.354 84.3021V47.5573H348.453L348.198 46.4167Z" fill="#47178F"/>
<path d="M296.578 45.7865C296.833 46.974 297.328 49.9219 296.385 51.4427C295.833 52.2865 295.208 53.0677 294.51 53.7917C293.766 54.4167 293.177 55.1719 292.75 56.0469C292.328 56.9219 292.094 57.8438 292.062 58.8177C292.083 59.2917 292.151 59.7604 292.266 60.224C292.38 60.6823 292.536 61.1302 292.74 61.5625C292.937 61.9896 293.182 62.401 293.464 62.7813C293.745 63.1667 294.062 63.5208 294.417 63.8438C294.766 64.1667 295.146 64.4479 295.552 64.6979C295.964 64.9427 296.391 65.151 296.839 65.3177C297.286 65.4792 297.745 65.599 298.219 65.6719C298.693 65.75 299.167 65.776 299.646 65.7552C300.12 65.776 300.594 65.75 301.068 65.6719C301.542 65.599 302 65.4792 302.448 65.3177C302.896 65.151 303.328 64.9479 303.734 64.6979C304.141 64.4531 304.521 64.1667 304.875 63.8438C305.224 63.5208 305.542 63.1719 305.823 62.7865C306.104 62.401 306.349 61.9948 306.552 61.5625C306.75 61.1354 306.911 60.6875 307.021 60.224C307.135 59.7656 307.203 59.2969 307.224 58.8229C307.208 57.849 306.984 56.9219 306.557 56.0417C306.135 55.1667 305.542 54.4167 304.786 53.7969C304.083 53.0833 303.453 52.3073 302.901 51.4688C301.958 49.9479 302.453 46.974 302.708 45.7865L302.969 44.5417H320.87V27.8177C319.354 27.6927 318.917 27.6927 318.615 27.8333C317.948 28.2813 317.328 28.7865 316.76 29.349C315.854 30.3594 314.781 31.1458 313.547 31.7031C312.307 32.2656 311.01 32.5573 309.651 32.5729C308.974 32.5521 308.307 32.4688 307.646 32.3125C306.984 32.1615 306.349 31.9479 305.729 31.6719C305.115 31.3958 304.531 31.0625 303.979 30.6719C303.427 30.2813 302.922 29.8385 302.453 29.349C301.99 28.8594 301.578 28.3281 301.219 27.7604C300.859 27.1875 300.557 26.5885 300.318 25.9583C300.078 25.3281 299.901 24.6823 299.786 24.0208C299.672 23.3542 299.625 22.6875 299.646 22.0156C299.625 21.3438 299.672 20.6719 299.786 20.0104C299.901 19.3438 300.078 18.6979 300.318 18.0677C300.557 17.4427 300.859 16.8385 301.219 16.2708C301.578 15.6979 301.99 15.1667 302.453 14.6771C302.922 14.1875 303.427 13.75 303.979 13.3594C304.531 12.9688 305.115 12.6354 305.729 12.3594C306.349 12.0781 306.984 11.8646 307.646 11.7135C308.307 11.5625 308.974 11.474 309.651 11.4531C311.005 11.4844 312.297 11.776 313.531 12.3385C314.76 12.8958 315.833 13.6771 316.74 14.6771C317.323 15.2448 317.953 15.7552 318.635 16.2031C318.922 16.3438 319.354 16.3333 320.87 16.2135V0.796875H284.104C283.729 0.802083 283.354 0.84375 282.99 0.921875C282.62 1 282.266 1.11458 281.917 1.26042C281.573 1.40625 281.245 1.58854 280.932 1.79688C280.625 2.01042 280.339 2.25 280.073 2.51563C279.807 2.78125 279.573 3.07292 279.37 3.38542C279.161 3.69792 278.984 4.02604 278.844 4.36979C278.703 4.71875 278.594 5.07292 278.521 5.44271C278.453 5.80729 278.417 6.17708 278.417 6.55208V44.5417H296.323L296.578 45.7865Z" fill="#47178F"/>
<path d="M360.672 0.796875H323.901V18.7083L322.703 18.9635C321.51 19.2188 318.573 19.7135 317.042 18.776C316.198 18.224 315.417 17.6042 314.693 16.9063C314.068 16.1667 313.312 15.5833 312.432 15.1563C311.552 14.7344 310.625 14.5052 309.651 14.474C309.172 14.4948 308.703 14.5625 308.24 14.6719C307.776 14.7865 307.323 14.9427 306.891 15.1458C306.458 15.3437 306.052 15.5885 305.661 15.8646C305.276 16.1458 304.922 16.4635 304.599 16.8125C304.276 17.1615 303.99 17.5417 303.74 17.9479C303.49 18.3542 303.286 18.776 303.12 19.224C302.953 19.6719 302.833 20.1302 302.76 20.599C302.687 21.0677 302.656 21.5417 302.677 22.0156C302.656 22.4896 302.687 22.9635 302.76 23.4323C302.833 23.901 302.953 24.3594 303.12 24.8073C303.286 25.25 303.49 25.6771 303.74 26.0833C303.99 26.4896 304.276 26.8646 304.599 27.2188C304.922 27.5677 305.276 27.8802 305.661 28.1615C306.047 28.4427 306.458 28.6823 306.891 28.8854C307.323 29.0833 307.776 29.2448 308.24 29.3542C308.703 29.4688 309.172 29.5365 309.651 29.5573C310.63 29.5365 311.562 29.3177 312.443 28.8958C313.323 28.474 314.078 27.8854 314.703 27.1354C315.422 26.4323 316.203 25.8073 317.042 25.2552C318.568 24.3229 321.51 24.8125 322.703 25.0677L323.901 25.3229V44.5417H339.297C339.422 43.0313 339.427 42.651 339.281 42.349C338.833 41.6927 338.323 41.0885 337.76 40.526C336.745 39.6302 335.953 38.5677 335.391 37.3385C334.828 36.1094 334.536 34.8177 334.516 33.4688C334.557 32.7969 334.661 32.1406 334.823 31.4948C334.99 30.8437 335.214 30.2187 335.5 29.6146C335.781 29.0104 336.125 28.4375 336.516 27.8958C336.911 27.3542 337.354 26.8542 337.839 26.3958C338.328 25.9375 338.859 25.526 339.427 25.1719C339.99 24.8125 340.589 24.5104 341.214 24.2604C341.839 24.0156 342.479 23.8281 343.141 23.7031C343.797 23.5781 344.464 23.5156 345.135 23.5156C345.807 23.5156 346.474 23.5781 347.135 23.7083C347.792 23.8333 348.432 24.0208 349.057 24.2656C349.682 24.5104 350.276 24.8177 350.844 25.1771C351.411 25.5365 351.937 25.9427 352.427 26.401C352.917 26.8594 353.359 27.3594 353.75 27.901C354.146 28.4427 354.484 29.0156 354.766 29.625C355.052 30.2292 355.276 30.8542 355.437 31.5052C355.604 32.151 355.703 32.8073 355.745 33.4792C355.719 34.8229 355.422 36.1094 354.859 37.3385C354.297 38.5625 353.51 39.625 352.505 40.5313C351.937 41.0937 351.427 41.7083 350.969 42.3646C350.833 42.651 350.839 43.0313 350.964 44.5417H366.354V6.55208C366.359 6.17708 366.323 5.80729 366.25 5.44271C366.177 5.07292 366.068 4.71875 365.927 4.36979C365.786 4.02604 365.609 3.69792 365.406 3.38542C365.198 3.07292 364.964 2.78125 364.698 2.51563C364.437 2.25 364.151 2.01042 363.839 1.79688C363.531 1.58854 363.203 1.40625 362.854 1.26042C362.51 1.11458 362.156 1 361.786 0.921875C361.422 0.84375 361.047 0.802083 360.672 0.796875Z" fill="#47178F"/>
</svg>
