<svg width="261" height="137" viewBox="0 0 261 137" fill="none" xmlns="http://www.w3.org/2000/svg">
<path d="M19.0932 124.911V117.995H7.78074V126.078L10.0932 126.203V129.599H0.405739V126.349L1.73907 126.245C2.49949 126.161 2.88491 125.786 2.88491 125.12V106.516L0.614072 106.391V102.995H10.3016V106.245L8.96824 106.349C8.55157 106.406 8.24428 106.526 8.05157 106.703C7.86928 106.87 7.78074 107.198 7.78074 107.682V113.87H19.0932V106.516L16.8224 106.391V102.995H26.4891V106.245L25.1766 106.349C24.3953 106.432 24.0099 106.864 24.0099 107.641V126.078L26.3016 126.203V129.599H16.6141V126.349L17.9266 126.245C18.3276 126.193 18.6193 126.078 18.8016 125.911C18.9943 125.734 19.0932 125.401 19.0932 124.911Z" fill="#47178F"/>
<path d="M29.9691 129.599V126.516L37.9274 116.474C38.7607 115.406 39.3076 114.698 39.5732 114.349C39.8336 113.989 40.0941 113.484 40.3441 112.828C40.6045 112.177 40.7399 111.391 40.7399 110.474C40.7399 109.547 40.4274 108.786 39.8024 108.203C39.1774 107.62 38.3701 107.328 37.3857 107.328C36.4118 107.328 35.6774 107.411 35.1774 107.578C34.6878 107.734 34.3961 107.906 34.3024 108.099C34.2191 108.297 34.1774 108.609 34.1774 109.036V111.87L30.0941 111.599V105.203C32.6045 103.953 35.1826 103.328 37.8232 103.328C40.4586 103.328 42.4482 103.974 43.7816 105.266C45.1149 106.557 45.7816 108.323 45.7816 110.557C45.7816 112.797 44.6409 115.286 42.3649 118.036L35.9274 125.641H45.9274V129.599H29.9691Z" fill="#47178F"/>
<path d="M56.864 125.12V106.953H53.739C53.1244 106.953 52.8224 107.37 52.8224 108.203V110.078L48.739 109.807V102.995H69.6557V109.807L65.5724 110.078V108.203C65.5724 107.745 65.4994 107.427 65.364 107.245C65.239 107.052 64.9161 106.953 64.4057 106.953H61.6974V126.078L64.864 126.203V129.599H53.5724V126.349L55.6974 126.245C56.4734 126.161 56.864 125.786 56.864 125.12Z" fill="#47178F"/>
<path d="M103.172 116.349C103.172 119.797 102.442 122.63 100.984 124.849C99.5361 127.057 97.4423 128.526 94.6923 129.245V129.349C96.7444 129.463 98.7028 130.078 100.567 131.203C101.901 132.021 103.463 132.432 105.255 132.432C105.656 132.432 106.073 132.401 106.505 132.349L106.005 136.203C105.64 136.229 105.286 136.245 104.942 136.245L100.984 135.557C99.3017 134.974 97.6559 134.307 96.0465 133.557C94.2392 132.708 92.5569 132.286 91.0048 132.286C90.2653 132.286 89.5257 132.359 88.7757 132.516L89.3382 129.641C82.9892 128.807 79.8173 124.38 79.8173 116.349C79.8173 113.906 80.1767 111.76 80.9007 109.911C81.6194 108.052 82.5778 106.614 83.7757 105.599C86.1194 103.547 88.8694 102.516 92.0257 102.516C95.1923 102.516 97.8382 103.641 99.9632 105.891C102.099 108.13 103.172 111.614 103.172 116.349ZM84.8173 116.161C84.8173 122.776 87.109 126.078 91.6923 126.078C94.1507 126.078 95.885 125.068 96.9007 123.036C97.7757 121.245 98.2132 119.057 98.2132 116.474C98.2132 114.156 97.8017 112.026 96.984 110.078C96.5517 109.01 95.8694 108.172 94.9423 107.557C94.0257 106.948 92.8278 106.641 91.359 106.641C89.9007 106.641 88.6403 107.12 87.5882 108.078C86.5309 109.036 85.8017 110.198 85.4007 111.557C85.01 112.922 84.8173 114.453 84.8173 116.161Z" fill="#47178F"/>
<path d="M127.336 126.432V129.599H120.856V126.995C119.383 129.078 117.221 130.12 114.377 130.12C110.237 130.12 108.169 127.818 108.169 123.203V113.953C108.169 113.234 107.836 112.864 107.169 112.849L105.898 112.766V109.474H112.94V122.161C112.94 123.578 113.133 124.651 113.523 125.37C113.924 126.078 114.752 126.432 116.002 126.432C117.263 126.432 118.273 126.052 119.023 125.286C119.784 124.51 120.169 123.573 120.169 122.474V114.036C120.169 113.609 120.091 113.307 119.94 113.141C119.799 112.963 119.544 112.864 119.169 112.849L117.898 112.766V109.474H124.94V125.161C124.94 125.594 125.002 125.885 125.127 126.036C125.263 126.177 125.534 126.276 125.94 126.328L127.336 126.432Z" fill="#47178F"/>
<path d="M137.017 109.474V126.286L139.288 126.391V129.599H129.767V126.557L131.101 126.432C131.861 126.364 132.246 125.943 132.246 125.161V114.036C132.246 113.578 132.168 113.276 132.017 113.12C131.877 112.953 131.621 112.87 131.246 112.87L129.851 112.807V109.474H137.017ZM131.976 106.036C131.418 105.484 131.142 104.781 131.142 103.932C131.142 103.073 131.418 102.359 131.976 101.786C132.528 101.203 133.257 100.911 134.163 100.911C135.08 100.911 135.819 101.203 136.392 101.786C136.96 102.359 137.246 103.073 137.246 103.932C137.246 104.781 136.96 105.484 136.392 106.036C135.819 106.578 135.08 106.849 134.163 106.849C133.257 106.849 132.528 106.578 131.976 106.036Z" fill="#47178F"/>
<path d="M158.211 129.599H141.899V126.557L152.17 113.036H147.128C146.571 113.036 146.217 113.151 146.066 113.37C145.925 113.578 145.857 113.922 145.857 114.391V115.807L142.086 115.516V109.474H158.024V112.203L147.607 125.995H153.295C154.071 125.995 154.461 125.547 154.461 124.641V122.953L158.211 123.245V129.599Z" fill="#47178F"/>
<path d="M182.177 120.286V127.516C179.688 129.224 176.604 130.078 172.927 130.078C169.245 130.078 166.37 128.927 164.302 126.62C162.245 124.318 161.219 120.891 161.219 116.349C161.219 114.349 161.474 112.552 161.99 110.953C162.516 109.359 163.198 108.036 164.031 106.995C164.875 105.953 165.854 105.088 166.969 104.391C169.104 103.141 171.531 102.516 174.24 102.516C176.948 102.516 179.474 103.068 181.823 104.161V110.953L177.74 111.245V108.12C177.74 107.719 177.682 107.427 177.573 107.245C177.281 106.734 176.063 106.474 173.927 106.474C168.787 106.474 166.219 109.661 166.219 116.036C166.219 122.76 168.537 126.12 173.177 126.12C175.011 126.12 176.417 125.802 177.406 125.161V119.203H177.365L174.302 119.078V115.682H184.261V118.87L183.344 118.953C182.912 119.01 182.604 119.13 182.427 119.307C182.261 119.474 182.177 119.802 182.177 120.286Z" fill="#47178F"/>
<path d="M204.526 110.286V125.161C204.526 125.594 204.599 125.891 204.755 126.057C204.906 126.213 205.161 126.302 205.526 126.328L206.817 126.391V129.599H200.463V127.286L200.338 127.245C199.005 129.161 197.177 130.12 194.859 130.12C192.135 130.12 190.119 129.255 188.817 127.516C187.51 125.781 186.859 123.406 186.859 120.391C186.859 116.766 187.734 113.943 189.484 111.911C191.244 109.885 193.89 108.87 197.421 108.87C199.682 108.87 202.052 109.344 204.526 110.286ZM199.901 123.245V112.87C199.151 112.526 198.119 112.349 196.817 112.349C195.026 112.349 193.724 113.073 192.921 114.516C192.13 115.963 191.734 117.87 191.734 120.245C191.734 124.568 193.119 126.724 195.901 126.724C197.067 126.724 198.026 126.37 198.776 125.661C199.526 124.953 199.901 124.151 199.901 123.245Z" fill="#47178F"/>
<path d="M209.018 112.724V109.474H215.768V112.078C217.268 109.943 219.315 108.87 221.914 108.87C224.508 108.87 226.268 109.943 227.185 112.078C228.669 109.943 230.69 108.87 233.247 108.87C235.174 108.87 236.653 109.453 237.685 110.62C238.726 111.776 239.247 113.516 239.247 115.849V126.286L241.539 126.391V129.599H232.018V126.557L233.331 126.432C233.732 126.38 234.018 126.266 234.185 126.099C234.362 125.932 234.466 125.62 234.497 125.161V116.87C234.497 115.411 234.331 114.328 233.997 113.62C233.664 112.911 232.877 112.557 231.643 112.557C230.419 112.557 229.482 112.932 228.831 113.682C228.174 114.432 227.851 115.432 227.851 116.682V126.286L230.06 126.391V129.599H220.622V126.557L221.935 126.432C222.336 126.38 222.627 126.266 222.81 126.099C223.002 125.932 223.101 125.609 223.101 125.12V116.87C223.101 115.411 222.935 114.328 222.601 113.62C222.268 112.911 221.476 112.557 220.226 112.557C218.987 112.557 218.049 112.948 217.414 113.724C216.773 114.489 216.456 115.448 216.456 116.599V126.286L218.622 126.391V129.599H209.185V126.557L210.497 126.432C210.898 126.38 211.19 126.266 211.372 126.099C211.565 125.932 211.664 125.609 211.664 125.12H211.685V114.078C211.685 113.62 211.607 113.307 211.456 113.141C211.315 112.963 211.06 112.864 210.685 112.849L209.018 112.724Z" fill="#47178F"/>
<path d="M253.929 108.87C255.929 108.87 257.512 109.364 258.679 110.349C259.856 111.323 260.45 112.682 260.45 114.432C260.45 115.614 260.189 116.651 259.679 117.536C259.179 118.427 258.554 119.13 257.804 119.641C257.064 120.141 256.163 120.552 255.096 120.87C253.304 121.411 251.288 121.682 249.054 121.682C249.137 123.099 249.575 124.239 250.366 125.099C251.168 125.963 252.398 126.391 254.054 126.391C255.705 126.391 257.356 125.807 259.012 124.641L260.533 127.87C260.002 128.359 259.101 128.859 257.825 129.37C256.559 129.87 255.116 130.12 253.491 130.12C250.241 130.12 247.851 129.224 246.325 127.432C244.809 125.63 244.054 123.156 244.054 120.016C244.054 116.864 244.918 114.219 246.658 112.078C248.392 109.943 250.814 108.87 253.929 108.87ZM252.116 118.036C253.085 117.859 253.981 117.469 254.804 116.87C255.637 116.26 256.054 115.547 256.054 114.724C256.054 113.099 255.252 112.286 253.658 112.286C252.158 112.286 251.002 112.885 250.2 114.078C249.408 115.26 248.971 116.677 248.887 118.328C250.064 118.302 251.142 118.203 252.116 118.036Z" fill="#47178F"/>
<path d="M138.474 71.625C139.318 72.1719 140.099 72.7969 140.823 73.4896C141.453 74.2344 142.208 74.8177 143.089 75.2396C143.964 75.6615 144.896 75.8906 145.87 75.9271C146.339 75.8854 146.802 75.8021 147.26 75.6771C147.714 75.5521 148.156 75.3854 148.578 75.1823C149.005 74.974 149.406 74.7292 149.786 74.4479C150.167 74.1667 150.516 73.8542 150.833 73.5052C151.156 73.1615 151.437 72.7865 151.693 72.3906C151.943 71.9896 152.151 71.5729 152.323 71.1302C152.495 70.6927 152.625 70.2448 152.714 69.7813C152.802 69.3177 152.844 68.8542 152.844 68.3802C152.844 67.9115 152.802 67.4479 152.714 66.9844C152.625 66.5208 152.495 66.0729 152.323 65.6302C152.151 65.1927 151.943 64.7761 151.693 64.375C151.437 63.9792 151.156 63.6042 150.833 63.2604C150.516 62.9115 150.167 62.599 149.786 62.3177C149.406 62.0365 149.005 61.7917 148.578 61.5833C148.156 61.3802 147.714 61.2136 147.26 61.0886C146.802 60.9636 146.339 60.8802 145.87 60.8386C144.891 60.8594 143.958 61.0781 143.078 61.5C142.193 61.9271 141.443 62.5156 140.818 63.2656C140.099 63.9688 139.318 64.5938 138.474 65.1406C136.948 66.0833 134.005 65.5886 132.812 65.3333L131.615 65.0781V47.1615H116.224C116.062 47.9271 116.068 48.6927 116.24 49.4583C116.687 50.1302 117.193 50.7552 117.76 51.3333C118.776 52.2344 119.562 53.3021 120.13 54.5365C120.693 55.7656 120.984 57.0625 121.005 58.4167C120.979 59.0886 120.896 59.7552 120.74 60.4115C120.589 61.0677 120.375 61.7031 120.099 62.3177C119.818 62.9271 119.484 63.5104 119.089 64.0573C118.698 64.6094 118.255 65.1146 117.76 65.5781C117.271 66.0365 116.74 66.4479 116.161 66.8073C115.589 67.1667 114.99 67.4636 114.354 67.7031C113.724 67.9427 113.073 68.1198 112.406 68.2344C111.74 68.349 111.068 68.3958 110.391 68.375C109.714 68.3958 109.042 68.349 108.375 68.2344C107.708 68.125 107.057 67.9479 106.422 67.7083C105.792 67.4688 105.187 67.1667 104.615 66.8125C104.042 66.4531 103.51 66.0417 103.016 65.5833C102.521 65.1198 102.083 64.6146 101.687 64.0677C101.297 63.5156 100.958 62.9375 100.682 62.3229C100.406 61.7083 100.187 61.0729 100.036 60.4167C99.8854 59.7604 99.7969 59.099 99.776 58.4219C99.8021 57.0781 100.099 55.7917 100.661 54.5677C101.224 53.3386 102.01 52.2761 103.016 51.375C103.583 50.7761 104.099 50.1302 104.547 49.4427C104.708 48.6823 104.714 47.9219 104.557 47.1615H89.1615V83.8438C89.1615 84.2083 89.1979 84.5729 89.2708 84.9323C89.3437 85.2917 89.4531 85.6406 89.5937 85.9792C89.7396 86.3177 89.9115 86.6354 90.1146 86.9427C90.3229 87.2448 90.5573 87.5261 90.8177 87.7813C91.0781 88.0417 91.3646 88.2708 91.6719 88.474C91.9792 88.6771 92.3021 88.8438 92.6406 88.9844C92.9844 89.125 93.3333 89.2292 93.6927 89.2969C94.0573 89.3698 94.4219 89.4011 94.7865 89.4011H131.615V71.6875L132.812 71.4375C134.005 71.1771 136.948 70.6875 138.474 71.625Z" fill="#47178F"/>
<path d="M158.943 46.026C158.687 44.8385 158.193 41.9375 159.135 40.4167C159.682 39.5833 160.307 38.8073 161.01 38.0938C161.755 37.4688 162.344 36.7188 162.766 35.8438C163.193 34.9688 163.422 34.0521 163.458 33.0781C163.417 32.6094 163.333 32.151 163.208 31.6979C163.083 31.2448 162.917 30.8021 162.708 30.3802C162.5 29.9583 162.255 29.5573 161.974 29.1823C161.687 28.8073 161.375 28.4583 161.026 28.1406C160.677 27.8229 160.302 27.5365 159.901 27.2865C159.5 27.0417 159.078 26.8281 158.641 26.6615C158.198 26.4896 157.745 26.3594 157.281 26.2708C156.818 26.1875 156.349 26.1406 155.875 26.1406C155.401 26.1406 154.932 26.1875 154.469 26.2708C154.005 26.3594 153.552 26.4896 153.109 26.6615C152.667 26.8333 152.25 27.0417 151.849 27.2917C151.448 27.5417 151.073 27.8229 150.724 28.1406C150.375 28.4635 150.062 28.8073 149.776 29.1875C149.495 29.5625 149.25 29.9635 149.042 30.3854C148.833 30.8073 148.667 31.2448 148.542 31.6979C148.417 32.1563 148.333 32.6146 148.297 33.0833C148.312 34.0573 148.536 34.9844 148.958 35.8646C149.385 36.7396 149.979 37.4896 150.734 38.1094C151.437 38.8229 152.068 39.599 152.62 40.4427C153.562 41.9583 153.068 44.8385 152.807 46.026L152.552 47.1615H134.646V62.5781C136.161 62.7031 136.599 62.7083 136.901 62.5677C137.568 62.1146 138.187 61.6094 138.76 61.0521C139.667 60.0417 140.74 59.2552 141.974 58.6927C143.214 58.1302 144.51 57.8437 145.87 57.8229C146.542 57.8646 147.203 57.9635 147.854 58.1302C148.505 58.2917 149.135 58.5156 149.74 58.7969C150.349 59.0833 150.927 59.4167 151.474 59.8073C152.016 60.2031 152.521 60.6406 152.979 61.125C153.443 61.6146 153.849 62.1354 154.214 62.7031C154.573 63.2656 154.875 63.8594 155.125 64.4792C155.375 65.099 155.562 65.7396 155.687 66.3958C155.812 67.0521 155.875 67.7135 155.875 68.3802C155.875 69.0521 155.812 69.7135 155.687 70.3698C155.562 71.026 155.375 71.6667 155.125 72.2865C154.875 72.9063 154.573 73.5 154.214 74.0625C153.849 74.625 153.443 75.151 152.979 75.6406C152.521 76.125 152.016 76.5625 151.474 76.9531C150.927 77.349 150.349 77.6823 149.74 77.9688C149.135 78.25 148.505 78.474 147.854 78.6354C147.203 78.8021 146.542 78.901 145.87 78.9427C144.516 78.9167 143.224 78.6198 141.99 78.0625C140.755 77.5 139.687 76.7188 138.781 75.7188C138.193 75.151 137.562 74.6458 136.885 74.1927C136.599 74.0573 136.161 74.0677 134.646 74.1875V89.401H171.417C171.786 89.4063 172.151 89.375 172.51 89.3073C172.875 89.2448 173.224 89.1406 173.568 89.0052C173.911 88.8698 174.234 88.7031 174.542 88.5052C174.854 88.3073 175.141 88.0781 175.401 87.8229C175.667 87.5677 175.901 87.2917 176.115 86.9896C176.323 86.6875 176.5 86.3698 176.646 86.0313C176.792 85.6979 176.901 85.349 176.979 84.9896C177.057 84.6354 177.094 84.2708 177.099 83.9063L177.104 83.8438V47.1615H159.198L158.943 46.026Z" fill="#47178F"/>
<path d="M107.323 45.3906C107.578 46.5781 108.073 49.526 107.13 51.0469C106.578 51.8906 105.953 52.6719 105.255 53.3958C104.51 54.026 103.922 54.776 103.495 55.651C103.073 56.526 102.844 57.4479 102.807 58.4219C102.828 58.8958 102.896 59.3646 103.01 59.8281C103.125 60.2865 103.281 60.7344 103.484 61.1667C103.682 61.599 103.927 62.0052 104.208 62.3906C104.49 62.7708 104.807 63.125 105.161 63.4479C105.51 63.7708 105.891 64.0573 106.297 64.3021C106.708 64.5521 107.135 64.7552 107.583 64.9219C108.031 65.0833 108.495 65.2031 108.964 65.2813C109.437 65.3542 109.911 65.3802 110.391 65.3646C110.865 65.3802 111.344 65.3542 111.812 65.2813C112.286 65.2031 112.745 65.0885 113.193 64.9219C113.641 64.7604 114.073 64.5521 114.479 64.3021C114.885 64.0573 115.266 63.7708 115.62 63.4479C115.969 63.1302 116.286 62.776 116.568 62.3906C116.849 62.0104 117.094 61.599 117.297 61.1719C117.495 60.7396 117.656 60.2917 117.766 59.8333C117.88 59.3698 117.948 58.901 117.969 58.4271C117.953 57.4531 117.729 56.526 117.307 55.651C116.88 54.7708 116.286 54.026 115.531 53.4063C114.828 52.6875 114.198 51.9115 113.646 51.0729C112.703 49.5521 113.198 46.5781 113.453 45.3906L113.714 44.1458H131.615V27.4219C130.099 27.3021 129.661 27.2969 129.359 27.4375C128.693 27.8854 128.078 28.3906 127.505 28.9531C126.599 29.9635 125.526 30.75 124.292 31.3125C123.052 31.8698 121.755 32.1615 120.396 32.1771C119.719 32.1563 119.052 32.0729 118.391 31.9219C117.734 31.7656 117.094 31.5521 116.474 31.276C115.859 31 115.276 30.6667 114.724 30.276C114.172 29.8854 113.667 29.4479 113.198 28.9531C112.734 28.4635 112.323 27.9375 111.964 27.3646C111.604 26.7969 111.302 26.1927 111.062 25.5677C110.823 24.9375 110.646 24.2917 110.531 23.625C110.417 22.9635 110.37 22.2917 110.391 21.6198C110.37 20.9479 110.417 20.276 110.531 19.6146C110.646 18.9531 110.823 18.3021 111.062 17.6771C111.302 17.0469 111.604 16.4479 111.964 15.875C112.323 15.3073 112.734 14.776 113.203 14.2865C113.667 13.7969 114.172 13.3542 114.724 12.9635C115.276 12.5729 115.859 12.2396 116.479 11.9635C117.094 11.6875 117.734 11.474 118.391 11.3177C119.052 11.1667 119.719 11.0833 120.396 11.0625C121.75 11.0885 123.042 11.3802 124.276 11.9427C125.505 12.5052 126.578 13.2813 127.484 14.2813C128.068 14.849 128.698 15.3594 129.38 15.8125C129.667 15.9479 130.099 15.9375 131.615 15.8177V0.401047H94.849C94.474 0.406256 94.099 0.447923 93.7344 0.526047C93.3646 0.604172 93.0104 0.718754 92.6615 0.864588C92.3177 1.01563 91.9896 1.19271 91.6771 1.40105C91.3698 1.61459 91.0833 1.85417 90.8177 2.1198C90.5521 2.38542 90.3177 2.67709 90.1146 2.98959C89.9062 3.30209 89.7292 3.63021 89.5885 3.97917C89.4479 4.32292 89.3385 4.67709 89.2656 5.04688C89.1979 5.41146 89.1615 5.78646 89.1615 6.15626V44.1458H107.068L107.323 45.3906Z" fill="#47178F"/>
<path d="M171.417 0.401047H134.646V18.3125L133.453 18.5729C132.255 18.8229 129.318 19.3177 127.786 18.3802C126.948 17.8333 126.161 17.2083 125.443 16.5156C124.813 15.7708 124.057 15.1875 123.177 14.7656C122.297 14.3385 121.37 14.1094 120.396 14.0781C119.917 14.099 119.448 14.1667 118.984 14.2813C118.521 14.3906 118.073 14.5469 117.635 14.75C117.203 14.9531 116.797 15.1927 116.411 15.474C116.021 15.7552 115.667 16.0677 115.344 16.4167C115.021 16.7656 114.734 17.1458 114.484 17.5521C114.24 17.9583 114.031 18.3854 113.865 18.8281C113.698 19.276 113.578 19.7344 113.505 20.2031C113.432 20.6719 113.401 21.1458 113.422 21.6198C113.401 22.0938 113.432 22.5677 113.505 23.0365C113.578 23.5052 113.698 23.9635 113.865 24.4115C114.031 24.8594 114.234 25.2813 114.484 25.6875C114.734 26.0938 115.021 26.474 115.344 26.8229C115.667 27.1719 116.021 27.4896 116.406 27.7708C116.792 28.0469 117.203 28.2917 117.635 28.4896C118.068 28.6927 118.521 28.849 118.984 28.9635C119.448 29.0729 119.917 29.1406 120.396 29.1615C121.375 29.1458 122.307 28.9219 123.188 28.5C124.068 28.0781 124.823 27.4896 125.448 26.7396C126.167 26.0365 126.948 25.4115 127.786 24.8594C129.318 23.9271 132.255 24.4167 133.453 24.6719L134.646 24.9271V44.1458H150.042C150.167 42.6406 150.172 42.2552 150.026 41.9583C149.578 41.3021 149.073 40.6927 148.505 40.1302C147.49 39.2344 146.698 38.1719 146.135 36.9427C145.573 35.7135 145.281 34.4219 145.26 33.0729C145.302 32.4063 145.406 31.7448 145.568 31.099C145.734 30.4531 145.958 29.8229 146.245 29.2188C146.531 28.6146 146.87 28.0417 147.26 27.5C147.656 26.9583 148.099 26.4583 148.589 26C149.073 25.5417 149.604 25.1354 150.172 24.776C150.734 24.4167 151.333 24.1146 151.958 23.8698C152.583 23.6198 153.224 23.4375 153.885 23.3125C154.542 23.1823 155.208 23.1198 155.88 23.125C156.552 23.125 157.219 23.1875 157.88 23.3125C158.536 23.4375 159.177 23.625 159.802 23.8698C160.427 24.1198 161.026 24.4219 161.589 24.7813C162.156 25.1406 162.682 25.5469 163.172 26.0052C163.661 26.4635 164.104 26.9635 164.495 27.5104C164.891 28.0521 165.229 28.625 165.51 29.2292C165.797 29.8333 166.021 30.4635 166.182 31.1094C166.349 31.7552 166.448 32.4167 166.49 33.0833C166.464 34.4323 166.167 35.7188 165.604 36.9427C165.042 38.1667 164.255 39.2344 163.25 40.1354C162.682 40.7031 162.172 41.3125 161.714 41.974C161.578 42.2604 161.583 42.6406 161.708 44.1458H177.104V6.15626C177.104 5.78646 177.068 5.41146 176.995 5.04688C176.922 4.6823 176.818 4.32292 176.672 3.97917C176.531 3.63021 176.359 3.30209 176.151 2.98959C175.943 2.67709 175.708 2.38542 175.448 2.1198C175.182 1.85417 174.896 1.61459 174.583 1.40626C174.276 1.19271 173.948 1.01563 173.604 0.864588C173.255 0.718754 172.901 0.604172 172.531 0.526047C172.167 0.447923 171.792 0.406256 171.417 0.401047Z" fill="#47178F"/>
</svg>
